<?xml version="1.0" standalone="no"?>
<!DOCTYPE svg PUBLIC "-//W3C//DTD SVG 20010904//EN"
 "http://www.w3.org/TR/2001/REC-SVG-20010904/DTD/svg10.dtd">
<svg version="1.0" xmlns="http://www.w3.org/2000/svg"
 width="16.000000pt" height="16.000000pt" viewBox="0 0 16.000000 16.000000"
 preserveAspectRatio="xMidYMid meet">

<g transform="translate(0.000000,16.000000) scale(0.100000,-0.100000)"
fill="#000000" stroke="none">
<path d="M51 109 c-16 -17 -18 -26 -10 -41 27 -50 109 -43 109 10 0 15 -5 33
-12 40 -19 19 -65 14 -87 -9z m79 -14 c0 -17 -27 -45 -43 -45 -7 0 -4 7 6 15
13 9 17 20 12 34 -5 16 -3 20 9 15 9 -3 16 -12 16 -19z"/>
</g>
</svg>
